<svg width="133" height="58" viewBox="0 0 133 58" fill="none" xmlns="http://www.w3.org/2000/svg">
<g clip-path="url(#clip0_2_21)">
<path d="M132.882 33.5806V51.0653C132.882 54.8144 129.862 57.8499 126.132 57.8499H108.742C105.012 57.8499 101.988 54.8095 101.988 51.0604V26.4538C101.988 21.6586 102.936 16.966 104.726 12.6254C106.515 8.28481 109.146 4.29125 112.516 0.903809L119.961 8.38746C115.196 13.1778 112.516 19.6789 112.516 26.4538V26.796H126.132C129.862 26.796 132.882 29.8315 132.882 33.5806Z" fill="#121519"/>
</g>
<g clip-path="url(#clip1_2_21)">
<path d="M83.7598 33.5806V51.0653C83.7598 54.8144 80.7399 57.8499 77.01 57.8499H59.62C55.8901 57.8499 52.8654 54.8095 52.8654 51.0604V26.4538C52.8654 21.6586 53.8136 16.966 55.6032 12.6254C57.3928 8.28481 60.0237 4.29125 63.3937 0.903809L70.8389 8.38746C66.0732 13.1778 63.3937 19.6789 63.3937 26.4538V26.796H77.01C80.7399 26.796 83.7598 29.8315 83.7598 33.5806Z" fill="#121519"/>
</g>
<defs>
<clipPath id="clip0_2_21">
<rect width="83.7598" height="56.9461" fill="white" transform="translate(49.1223 0.903809)"/>
</clipPath>
<clipPath id="clip1_2_21">
<rect width="83.7598" height="56.9461" fill="white" transform="translate(0 0.903809)"/>
</clipPath>
</defs>
</svg>
